<svg width="130" height="130" viewBox="0 0 130 130" fill="none" xmlns="http://www.w3.org/2000/svg">
<circle cx="65" cy="65" r="65" fill="#212197"/>
<path d="M75.3977 46H70.1136C69.8011 44.4801 69.2543 43.1449 68.473 41.9943C67.706 40.8438 66.7685 39.8778 65.6605 39.0966C64.5668 38.3011 63.3523 37.7045 62.017 37.3068C60.6818 36.9091 59.2898 36.7102 57.8409 36.7102C55.1989 36.7102 52.8054 37.3778 50.6605 38.7131C48.5298 40.0483 46.8324 42.0156 45.5682 44.6151C44.3182 47.2145 43.6932 50.4034 43.6932 54.1818C43.6932 57.9602 44.3182 61.1491 45.5682 63.7486C46.8324 66.348 48.5298 68.3153 50.6605 69.6506C52.8054 70.9858 55.1989 71.6534 57.8409 71.6534C59.2898 71.6534 60.6818 71.4545 62.017 71.0568C63.3523 70.6591 64.5668 70.0696 65.6605 69.2884C66.7685 68.4929 67.706 67.5199 68.473 66.3693C69.2543 65.2045 69.8011 63.8693 70.1136 62.3636H75.3977C75 64.5937 74.2756 66.5895 73.2244 68.3509C72.1733 70.1122 70.8665 71.6108 69.304 72.8466C67.7415 74.0682 65.9872 74.9986 64.0412 75.6378C62.1094 76.277 60.0426 76.5966 57.8409 76.5966C54.1193 76.5966 50.8097 75.6875 47.9119 73.8693C45.0142 72.0511 42.7344 69.4659 41.0724 66.1136C39.4105 62.7614 38.5795 58.7841 38.5795 54.1818C38.5795 49.5795 39.4105 45.6023 41.0724 42.25C42.7344 38.8977 45.0142 36.3125 47.9119 34.4943C50.8097 32.6761 54.1193 31.767 57.8409 31.767C60.0426 31.767 62.1094 32.0866 64.0412 32.7259C65.9872 33.3651 67.7415 34.3026 69.304 35.5384C70.8665 36.7599 72.1733 38.2514 73.2244 40.0128C74.2756 41.7599 75 43.7557 75.3977 46Z" fill="#EBFF00"/>
<path d="M88.3977 65H83.1136C82.8011 63.4801 82.2543 62.1449 81.473 60.9943C80.706 59.8438 79.7685 58.8778 78.6605 58.0966C77.5668 57.3011 76.3523 56.7045 75.017 56.3068C73.6818 55.9091 72.2898 55.7102 70.8409 55.7102C68.1989 55.7102 65.8054 56.3778 63.6605 57.7131C61.5298 59.0483 59.8324 61.0156 58.5682 63.6151C57.3182 66.2145 56.6932 69.4034 56.6932 73.1818C56.6932 76.9602 57.3182 80.1491 58.5682 82.7486C59.8324 85.348 61.5298 87.3153 63.6605 88.6506C65.8054 89.9858 68.1989 90.6534 70.8409 90.6534C72.2898 90.6534 73.6818 90.4545 75.017 90.0568C76.3523 89.6591 77.5668 89.0696 78.6605 88.2884C79.7685 87.4929 80.706 86.5199 81.473 85.3693C82.2543 84.2045 82.8011 82.8693 83.1136 81.3636H88.3977C88 83.5937 87.2756 85.5895 86.2244 87.3509C85.1733 89.1122 83.8665 90.6108 82.304 91.8466C80.7415 93.0682 78.9872 93.9986 77.0412 94.6378C75.1094 95.277 73.0426 95.5966 70.8409 95.5966C67.1193 95.5966 63.8097 94.6875 60.9119 92.8693C58.0142 91.0511 55.7344 88.4659 54.0724 85.1136C52.4105 81.7614 51.5795 77.7841 51.5795 73.1818C51.5795 68.5795 52.4105 64.6023 54.0724 61.25C55.7344 57.8977 58.0142 55.3125 60.9119 53.4943C63.8097 51.6761 67.1193 50.767 70.8409 50.767C73.0426 50.767 75.1094 51.0866 77.0412 51.7259C78.9872 52.3651 80.7415 53.3026 82.304 54.5384C83.8665 55.7599 85.1733 57.2514 86.2244 59.0128C87.2756 60.7599 88 62.7557 88.3977 65Z" fill="#EBFF00"/>
</svg>
